<?xml version="1.0" standalone="no"?>
<!DOCTYPE svg PUBLIC "-//W3C//DTD SVG 20010904//EN"
 "http://www.w3.org/TR/2001/REC-SVG-20010904/DTD/svg10.dtd">
<svg version="1.0" xmlns="http://www.w3.org/2000/svg"
 width="64.000000pt" height="64.000000pt" viewBox="0 0 64.000000 64.000000"
 preserveAspectRatio="xMidYMid meet">

<g transform="translate(0.000000,64.000000) scale(0.100000,-0.100000)"
fill="#000000" stroke="none">
<path d="M210 529 c-58 -33 -111 -65 -117 -71 -14 -12 -17 -83 -7 -201 l7 -76
113 -65 114 -65 114 65 113 65 7 76 c3 42 6 102 6 134 0 52 -3 60 -27 77 -33
22 -207 122 -213 122 -3 0 -52 -27 -110 -61z m228 -18 l112 -64 0 -74 c0 -103
-15 -125 -98 -144 -26 -5 -32 -5 -23 4 6 6 11 16 11 21 0 6 -27 -16 -60 -49
l-60 -59 -71 69 c-39 39 -66 60 -60 48 11 -21 10 -23 -19 -23 -19 0 -40 9 -55
25 -22 21 -25 33 -25 103 l0 78 113 66 c61 37 115 66 118 65 3 -1 56 -31 117
-66z"/>
<path d="M367 273 c-44 -45 -63 -93 -37 -93 6 0 32 20 59 45 26 25 50 43 53
40 2 -3 15 7 29 22 24 28 24 28 0 8 -23 -20 -23 -20 -20 0 7 39 -33 28 -84
-22z"/>
<path d="M74 210 l1 -45 105 -63 c58 -34 115 -65 128 -68 16 -5 49 9 115 47
147 84 147 84 146 132 l-2 42 -6 -40 c-6 -38 -9 -41 -123 -107 l-118 -67 -117
67 c-114 66 -118 69 -124 107 l-7 40 2 -45z"/>
</g>
</svg>
