<?xml version="1.0" encoding="UTF-8"?>
<svg version="1.1" xmlns="http://www.w3.org/2000/svg" width="391" height="449">
<path d="M0 0 C3.88580442 1.64687983 7.37099574 3.81779097 10.9375 6.0625 C13.07354556 7.35788155 15.21028843 8.65211382 17.34765625 9.9453125 C18.44480957 10.61723633 19.54196289 11.28916016 20.67236328 11.98144531 C26.02034685 15.22554863 31.44816199 18.32777117 36.875 21.4375 C39.05756184 22.69484363 41.23985213 23.95265875 43.421875 25.2109375 C45.6145405 26.47403269 47.80724889 27.73705344 50 29 C62.64302999 36.28193508 75.28132332 43.57046042 87.875 50.9375 C96.55262241 56.01275123 105.26605568 61.02258767 114 66 C123.71175331 71.53465868 133.39162696 77.12054542 143.03833008 82.76806641 C148.28711228 85.83930678 153.54446415 88.89443314 158.81640625 91.92578125 C159.39094543 92.25620926 159.96548462 92.58663727 160.55743408 92.92707825 C163.31498334 94.51263265 166.07372811 96.09603994 168.83447266 97.67602539 C170.80667334 98.80914949 172.76655439 99.96411799 174.71056557 101.14495087 C177.94275834 103.06608974 177.94275834 103.06608974 181.38161278 104.33861542 C185.22402296 106.07384772 188.39020141 107.62331635 191 111 C193.51741624 117.7684822 192.77613828 125.52092626 192.68212891 132.61914062 C192.69975392 134.84381444 192.7229061 137.06845031 192.75115967 139.29301453 C192.81036754 145.32482539 192.78747834 151.35374229 192.74623156 157.38560295 C192.71328628 163.70136105 192.74385101 170.01687362 192.76425171 176.3326416 C192.78940833 187.61769426 192.74904454 198.90127905 192.68288033 210.18603808 C192.62479981 220.40836805 192.63488938 230.62877887 192.69482422 240.85107422 C192.7644697 252.73507081 192.79025243 264.61790244 192.75186479 276.5021739 C192.73161062 282.78832029 192.72885409 289.07314596 192.77183914 295.35920715 C192.80943738 301.27026025 192.78328347 307.17769533 192.70821381 313.08835793 C192.69104502 315.25544541 192.69592897 317.42283824 192.72462845 319.5898037 C192.91606005 335.5137146 192.91606005 335.5137146 189.74906683 339.62321472 C186.26598852 342.70248927 182.30183671 344.29241184 178 346 C175.82261848 347.22108215 173.65979955 348.46888348 171.51953125 349.75390625 C169.28499315 351.02544119 167.04927698 352.29490766 164.8125 353.5625 C162.34443247 354.96636027 159.87734636 356.3719422 157.41015625 357.77734375 C156.79046967 358.13006348 156.17078308 358.4827832 155.53231812 358.84619141 C149.25932594 362.41793187 143.0022335 366.01705151 136.75 369.625 C135.67967529 370.24262207 134.60935059 370.86024414 133.5065918 371.49658203 C126.36652118 375.62166722 119.24301818 379.77450926 112.125 383.9375 C102.85494485 389.35911495 93.5416835 394.70204857 84.21154785 400.01922607 C75.09001709 405.21882926 66.00363569 410.47581467 56.94189453 415.77905273 C48.52095826 420.70512574 40.0751513 425.58732191 31.60717773 430.43212891 C26.2810793 433.4883571 21.000711 436.59412691 15.78515625 439.8359375 C14.79854004 440.44236084 13.81192383 441.04878418 12.79541016 441.67358398 C10.94999686 442.81258203 9.1141682 443.96732715 7.29052734 445.14086914 C2.77161347 447.91481676 -1.13349348 450.01881355 -6.53637695 449.6340332 C-12.21145064 448.17350735 -17.09869917 444.8917264 -22.0625 441.875 C-23.30536776 441.13947835 -24.54936555 440.40586316 -25.79443359 439.67407227 C-28.32718563 438.18180248 -30.85344467 436.67940518 -33.37451172 435.16748047 C-37.63156654 432.61662228 -41.92062674 430.12196408 -46.2121582 427.62963867 C-49.15006223 425.92294076 -52.08320257 424.20828388 -55.015625 422.4921875 C-64.55822933 416.91570844 -74.14057793 411.40788509 -83.71777344 405.89111328 C-89.14659942 402.76319852 -94.57319281 399.63141552 -100 396.5 C-102.16665583 395.24998121 -104.3333225 393.99998122 -106.5 392.75 C-119.5 385.25 -132.5 377.75 -145.5 370.25 C-146.57386963 369.6305249 -147.64773926 369.0110498 -148.75415039 368.37280273 C-150.90721037 367.13052194 -153.06004478 365.88785012 -155.21264648 364.64477539 C-160.24101461 361.74163888 -165.27139814 358.84221133 -170.31021118 355.95724487 C-172.08432545 354.94122816 -173.85769919 353.92393072 -175.63085938 352.90625 C-177.84815314 351.63417708 -180.06681075 350.36447715 -182.28710938 349.09765625 C-183.29708984 348.51757812 -184.30707031 347.9375 -185.34765625 347.33984375 C-186.22429932 346.83831787 -187.10094238 346.33679199 -188.00415039 345.82006836 C-188.99278076 345.2194458 -189.98141113 344.61882324 -191 344 C-191.73272283 343.75677033 -192.46544565 343.51354067 -193.2203722 343.26294041 C-196.36509622 341.89987328 -197.90042225 340.74469303 -200 338 C-201.88165577 331.15103262 -201.22870152 323.60794661 -201.16455078 316.57617188 C-201.1767477 314.34857364 -201.19277326 312.12099356 -201.21234131 309.89344788 C-201.25338604 303.84562026 -201.23745859 297.79917368 -201.20892954 291.75132179 C-201.18615147 285.42397958 -201.20727321 279.09675601 -201.22140503 272.76940918 C-201.23883058 261.46264565 -201.21085299 250.15658373 -201.165071 238.84996051 C-201.12486121 228.60229902 -201.13184579 218.35555508 -201.17333984 208.10791016 C-201.22152547 196.20212807 -201.23942074 184.29690324 -201.21282947 172.39098978 C-201.19879415 166.09059015 -201.19693768 159.79082235 -201.22665787 153.49046326 C-201.25264805 147.56700641 -201.23464299 141.64528292 -201.18260956 135.72201347 C-201.17070388 133.54760556 -201.17413699 131.37305188 -201.19397354 129.19870186 C-201.33032536 112.73552649 -201.33032536 112.73552649 -198.0156374 108.41122437 C-195.6892689 106.82565109 -193.6629322 105.87368743 -191 105 C-190.0917749 104.45472656 -189.1835498 103.90945312 -188.24780273 103.34765625 C-187.10226929 102.71150391 -187.10226929 102.71150391 -185.93359375 102.0625 C-185.04889404 101.56766113 -184.16419434 101.07282227 -183.25268555 100.56298828 C-182.32367432 100.04720215 -181.39466309 99.53141602 -180.4375 99 C-172.31054156 94.44743174 -164.22572089 89.83252148 -156.1875 85.125 C-144.58061953 78.33107444 -132.93606995 71.60410088 -121.28222656 64.89111328 C-115.85340058 61.76319852 -110.42680719 58.63141552 -105 55.5 C-102.83334417 54.24998121 -100.6666775 52.99998122 -98.5 51.75 C-97.4275 51.13125 -96.355 50.5125 -95.25 49.875 C-59.5 29.25 -59.5 29.25 -56.24487305 27.37207031 C-54.09526366 26.13189239 -51.94568642 24.89165873 -49.79614258 23.65136719 C-44.72690788 20.7264977 -39.65735064 17.80219167 -34.5866394 14.87988281 C-32.19573403 13.50193062 -29.80501328 12.12365828 -27.41430664 10.74536133 C-25.73016037 9.77459018 -24.04574769 8.80428126 -22.36132812 7.83398438 C-21.33845703 7.24423828 -20.31558594 6.65449219 -19.26171875 6.046875 C-18.36412842 5.52963867 -17.46653809 5.01240234 -16.54174805 4.47949219 C-14.81412495 3.47388312 -13.10999462 2.42703262 -11.42919922 1.3449707 C-7.53277075 -0.81235839 -4.33410398 -0.82590591 0 0 Z M-11.50390625 21.97265625 C-12.62361816 22.61726807 -13.74333008 23.26187988 -14.89697266 23.92602539 C-16.11887999 24.63807226 -17.34072067 25.35023351 -18.5625 26.0625 C-19.8282687 26.79413488 -21.09438702 27.5251652 -22.36083984 28.25561523 C-24.97028412 29.76199983 -27.57758469 31.27199572 -30.18310547 32.78515625 C-33.69198355 34.82260496 -37.20634118 36.85040733 -40.72265625 38.875 C-46.07855953 41.95902198 -51.43099947 45.04898586 -56.78222656 48.14111328 C-62.18670645 51.26324605 -67.59347412 54.38141204 -73 57.5 C-75.1666775 58.74998122 -77.33334417 59.99998121 -79.5 61.25 C-118.5 83.75 -118.5 83.75 -121.75170898 85.62597656 C-123.91268988 86.87270256 -126.07365998 88.11944727 -128.23461914 89.36621094 C-133.73818851 92.54145883 -139.24196032 95.71635495 -144.74609375 98.890625 C-145.86693359 99.53708984 -146.98777344 100.18355469 -148.14257812 100.84960938 C-150.23104731 102.05416214 -152.31958107 103.25860296 -154.40820312 104.46289062 C-156.36958458 105.59420821 -158.3203583 106.74413705 -160.25950909 107.91314983 C-163.00886835 109.51549974 -165.80633718 110.80921416 -168.72777271 112.06815052 C-177.72193738 115.99154454 -177.72193738 115.99154454 -184.08732581 123.07103896 C-185.78823475 129.01865486 -185.38290852 135.13214092 -185.15698242 141.25073242 C-185.15161615 143.29173274 -185.15464488 145.33276969 -185.16539001 147.37374878 C-185.17082287 152.89063415 -185.0594928 158.39960455 -184.92648482 163.91465545 C-184.80735888 169.68644938 -184.79652278 175.45844392 -184.77400208 181.23127747 C-184.71504488 192.15139693 -184.55927961 203.06788392 -184.36836177 213.98640662 C-184.15567108 226.42121856 -184.05144751 238.85620807 -183.95614851 251.29238737 C-183.75777417 276.8636023 -183.42378534 302.43159729 -183 328 C-182.33773061 328.37388414 -181.67546122 328.74776829 -180.99312305 329.13298225 C-177.96568049 330.84238077 -174.93852647 332.55228962 -171.91137695 334.26220703 C-170.86953499 334.85036697 -169.82769302 335.43852692 -168.75428009 336.04450989 C-161.86684619 339.93556416 -155.00612419 343.86446201 -148.1875 347.875 C-136.58184858 354.67100718 -124.93605309 361.39590883 -113.28222656 368.10888672 C-108.93443789 370.61394259 -104.58811013 373.12152605 -100.24194336 375.62939453 C-98.08925194 376.87150024 -95.93642101 378.11336419 -93.78344727 379.35498047 C-88.76759603 382.24776226 -83.75267492 385.14211645 -78.74136353 388.04275513 C-76.98341931 389.06017706 -75.22515558 390.07704461 -73.46679688 391.09375 C-71.27345599 392.3621881 -69.08070153 393.63164102 -66.88867188 394.90234375 C-64.89479341 396.05487465 -62.89309164 397.19399865 -60.88305664 398.31811523 C-58 400 -58 400 -55.19311523 401.96508789 C-52.44128893 403.78655456 -50.18381711 405.1223487 -47 406 C-42.7043342 405.03800464 -39.52292082 402.7982623 -35.9375 400.3125 C-33.82288166 398.96285644 -31.70694997 397.61526886 -29.58984375 396.26953125 C-27.96344971 395.20532959 -27.96344971 395.20532959 -26.30419922 394.11962891 C-20.98647951 390.70833568 -15.49287689 387.61813533 -10 384.5 C-7.81145989 383.24139021 -5.62395675 381.98097554 -3.4375 380.71875 C-2.365 380.1 -1.2925 379.48125 -0.1875 378.84375 C4.88356487 375.91048699 9.94211909 372.95592067 15 370 C28.73046817 361.97718322 42.51078086 354.04141672 56.29101562 346.10449219 C68.85171553 338.86884242 81.40140294 331.61580674 93.91308594 324.2956543 C99.33299935 321.12773382 104.76440906 317.9812296 110.2109375 314.859375 C111.41796932 314.16666765 112.62500057 313.47395933 113.83203125 312.78125 C116.15295797 311.44956032 118.4761878 310.12218484 120.80078125 308.796875 C121.84363281 308.19875 122.88648438 307.600625 123.9609375 306.984375 C124.88696777 306.45553711 125.81299805 305.92669922 126.76708984 305.38183594 C129.09138887 304.06139685 129.09138887 304.06139685 131 302 C131.2934112 299.28828964 131.2934112 299.28828964 131.22705078 296.08154297 C131.22689972 294.84040741 131.22674866 293.59927185 131.22659302 292.32052612 C131.216379 290.9610783 131.205947 289.6016321 131.1953125 288.2421875 C131.19158284 286.85499271 131.18873565 285.46779529 131.18673706 284.08059692 C131.17909684 280.42759949 131.15944516 276.77476083 131.1373291 273.12182617 C131.11687896 269.39504138 131.10773713 265.66823096 131.09765625 261.94140625 C131.07619951 254.62753175 131.04205903 247.31378811 131 240 C127.37861799 241.41792161 124.03436012 243.00154162 120.640625 244.90625 C119.61654541 245.47980225 118.59246582 246.05335449 117.53735352 246.64428711 C116.45252686 247.25667236 115.3677002 247.86905762 114.25 248.5 C113.12327881 249.13365479 111.99655762 249.76730957 110.83569336 250.42016602 C104.04482257 254.25000564 97.29015254 258.13335601 90.5847168 262.1105957 C84.27275475 265.85304663 77.92058399 269.52403479 71.5625 273.1875 C70.45527588 273.82550537 69.34805176 274.46351074 68.20727539 275.12084961 C65.93662932 276.42889477 63.66587642 277.73675448 61.39501953 279.04443359 C55.92830025 282.19332051 50.46422354 285.3467849 45 288.5 C38.47767561 292.26365365 31.95486237 296.02644623 25.4296875 299.78515625 C14.97793801 305.80747329 4.53700452 311.84669337 -5.875 317.9375 C-15.13798694 323.35511137 -24.44415029 328.69411421 -33.76730347 334.00714111 C-53.51667484 344.72668479 -53.51667484 344.72668479 -72.42211914 356.73706055 C-75.79956986 358.39172032 -77.4197911 358.02547825 -81 357 C-83.65527344 355.74755859 -83.65527344 355.74755859 -86.359375 354.1484375 C-87.37918457 353.55216553 -88.39899414 352.95589355 -89.44970703 352.34155273 C-90.53880371 351.69259033 -91.62790039 351.04362793 -92.75 350.375 C-93.90551279 349.69571783 -95.06161137 349.01743127 -96.21826172 348.34008789 C-98.62074891 346.93218406 -101.02066241 345.52003309 -103.41894531 344.10498047 C-108.9627158 340.83943335 -114.54627853 337.64282555 -120.125 334.4375 C-123.06475949 332.74615231 -125.98453425 331.05713069 -128.85604858 329.25151062 C-132.07908867 327.35263854 -135.31999045 326.16255478 -138.85494995 324.95201111 C-145.9884457 322.17877446 -152.18384023 319.10769502 -157 313 C-161.79531808 301.84970887 -159.98906405 287.45349013 -159.63538361 275.63710642 C-159.5127191 270.68601072 -159.52735097 265.73527178 -159.52685547 260.78292847 C-159.50534146 251.42379605 -159.36199718 242.07073574 -159.17383957 232.71363151 C-158.96549201 222.05371639 -158.89450362 211.39423403 -158.83452415 200.73261285 C-158.70819234 178.81883606 -158.41107452 156.91016504 -158 135 C-157.07993164 134.70826904 -156.15986328 134.41653809 -155.21191406 134.1159668 C-151.41643157 132.79724146 -148.16198067 130.8914742 -144.75 128.8125 C-143.23381085 127.90501595 -141.71683112 126.99885194 -140.19921875 126.09375 C-139.37083496 125.59875 -138.54245117 125.10375 -137.68896484 124.59375 C-132.67332135 121.6209771 -127.61581773 118.72060528 -122.5625 115.8125 C-121.45680664 115.17546143 -120.35111328 114.53842285 -119.21191406 113.88208008 C-116.93975918 112.57299343 -114.66745991 111.26415738 -112.39501953 109.95556641 C-106.9283002 106.80667946 -101.46425113 103.65316736 -96 100.5 C-93.83334689 99.2499765 -91.66668021 97.99997653 -89.5 96.75 C-88.4275 96.13125 -87.355 95.5125 -86.25 94.875 C-76.5 89.25 -76.5 89.25 -73.24951172 87.37475586 C-71.08442929 86.12564482 -68.91939018 84.87645871 -66.75439453 83.62719727 C-61.31384294 80.48797691 -55.87252784 77.35009437 -50.4296875 74.21484375 C-49.34518311 73.589729 -48.26067871 72.96461426 -47.14331055 72.32055664 C-44.98144362 71.0749841 -42.81885679 69.83066015 -40.65551758 68.58764648 C-35.14605837 65.41655061 -29.66117765 62.21075263 -24.20703125 58.9453125 C-23.11213379 58.29377197 -22.01723633 57.64223145 -20.88916016 56.97094727 C-18.8039268 55.72798027 -16.7238663 54.47628047 -14.64990234 53.21459961 C-13.71742676 52.6603833 -12.78495117 52.10616699 -11.82421875 51.53515625 C-11.01041748 51.044104 -10.19661621 50.55305176 -9.3581543 50.04711914 C-6.65284522 48.84584876 -4.93039949 48.68041744 -2 49 C0.51275911 50.26681212 2.81245949 51.57398876 5.1875 53.0625 C6.71258388 53.98855835 8.23869354 54.91292872 9.765625 55.8359375 C10.60029297 56.34350586 11.43496094 56.85107422 12.29492188 57.37402344 C17.30099202 60.38308726 22.37319934 63.27790739 27.4375 66.1875 C29.67718146 67.47769425 31.91676339 68.76806131 34.15625 70.05859375 C35.28417969 70.70812012 36.41210938 71.35764648 37.57421875 72.02685547 C42.09427334 74.63026776 46.61291959 77.2361162 51.13110352 79.84277344 C53.31612931 81.10316046 55.50150724 82.36293723 57.68725586 83.62207031 C62.72922294 86.52793831 67.76509279 89.44314787 72.78515625 92.38671875 C74.11365601 93.16354004 74.11365601 93.16354004 75.46899414 93.95605469 C77.11225658 94.91788708 78.75349716 95.88318523 80.39233398 96.85253906 C83.95719847 99.16972676 83.95719847 99.16972676 88 100 C85.5849251 102.67813752 82.98947088 104.3043511 79.86328125 106.08203125 C78.82365234 106.67693359 77.78402344 107.27183594 76.71289062 107.88476562 C75.02969727 108.83899414 75.02969727 108.83899414 73.3125 109.8125 C71.53666257 110.82652174 69.76184016 111.84230529 67.98703003 112.85812378 C66.77358226 113.55246591 65.55981345 114.24624725 64.34573364 114.93948364 C58.54150683 118.25491936 52.76868166 121.62314004 47 125 C33.270164 133.02388601 19.48920996 140.95858857 5.70898438 148.89550781 C-6.8676392 156.14033048 -19.43036957 163.4073281 -31.96142578 170.73071289 C-39.29312653 175.01245019 -46.64298024 179.26193675 -54 183.5 C-62.65287922 188.48787849 -71.3024152 193.48136451 -79.9375 198.5 C-80.88947266 199.05107422 -81.84144531 199.60214844 -82.82226562 200.16992188 C-84.59345841 201.20113856 -86.3561042 202.24726815 -88.10720825 203.3122406 C-91 205 -91 205 -93.89682007 206.37550354 C-99.76170686 209.37780185 -99.76170686 209.37780185 -102.96211243 214.86459351 C-103.27490726 218.41550669 -103.23824391 221.81015474 -103.07421875 225.37109375 C-103.05865433 226.64855972 -103.0430899 227.9260257 -103.02705383 229.24220276 C-102.97603349 232.62077275 -102.87751708 235.99099173 -102.75531006 239.36724854 C-102.64225057 242.81897198 -102.5924343 246.27156345 -102.53710938 249.72460938 C-102.41603064 256.48536115 -102.23213984 263.24219911 -102 270 C-98.6220259 268.67380825 -95.48221021 267.24435047 -92.32421875 265.453125 C-91.42662842 264.94539551 -90.52903809 264.43766602 -89.60424805 263.91455078 C-88.64172119 263.36524902 -87.67919434 262.81594727 -86.6875 262.25 C-85.67276611 261.67362793 -84.65803223 261.09725586 -83.61254883 260.50341797 C-74.4219122 255.26959599 -65.28811786 249.93975958 -56.16015625 244.59765625 C-46.56057762 238.98321325 -36.91864049 233.4419968 -27.28222656 227.89111328 C-21.85340058 224.76319852 -16.42680719 221.63141552 -11 218.5 C-8.83334417 217.24998121 -6.6666775 215.99998122 -4.5 214.75 C-3.4275 214.13125 -2.355 213.5125 -1.25 212.875 C34.5 192.25 34.5 192.25 37.75048828 190.37475586 C39.91557071 189.12564482 42.08060982 187.87645871 44.24560547 186.62719727 C49.68615706 183.48797691 55.12747216 180.35009437 60.5703125 177.21484375 C71.06232094 171.16944841 81.54481676 165.10889781 92 159 C103.52235775 152.26755883 115.07918712 145.59586684 126.64306641 138.93505859 C130.13192703 136.92395246 133.61894828 134.90969005 137.10546875 132.89453125 C138.28205212 132.21474214 139.45864705 131.53497305 140.63525391 130.85522461 C142.85268378 129.57401834 145.06982559 128.29231333 147.28662109 127.01000977 C153.16097076 123.61742993 159.05612428 120.26936584 165 117 C161.76733025 114.3091852 158.57222803 112.06115192 154.88671875 110.0390625 C153.89873291 109.49258057 152.91074707 108.94609863 151.89282227 108.38305664 C150.83506592 107.80289795 149.77730957 107.22273926 148.6875 106.625 C140.09074565 101.86151974 131.54084764 97.03383369 123.0625 92.0625 C114.76622981 87.20057903 106.45656729 82.3637316 98.125 77.5625 C97.04484619 76.93996338 95.96469238 76.31742676 94.85180664 75.67602539 C92.66203666 74.41423174 90.47217645 73.15259466 88.28222656 71.89111328 C82.85340058 68.76319852 77.42680719 65.63141552 72 62.5 C69.83334417 61.24998121 67.6666775 59.99998122 65.5 58.75 C61.16666667 56.25 56.83333333 53.75 52.5 51.25 C51.42621094 50.6305249 50.35242188 50.0110498 49.24609375 49.37280273 C47.0923828 48.13023981 44.93873633 46.88756511 42.78515625 45.64477539 C37.76315738 42.74685377 32.74057193 39.84996651 27.71557617 36.95724487 C25.94954478 35.94052802 24.18372569 34.92344342 22.41796875 33.90625 C20.21265845 32.63599127 18.00695784 31.36640982 15.80078125 30.09765625 C14.79402344 29.51757812 13.78726563 28.9375 12.75 28.33984375 C11.78707031 27.78538574 10.82414063 27.23092773 9.83203125 26.65966797 C6.19859778 24.53035066 2.62233886 22.31240239 -0.94140625 20.06860352 C-5.21041427 17.85258737 -7.67128535 19.75141101 -11.50390625 21.97265625 Z M-11.1640625 70.65625 C-12.70320313 71.56020508 -12.70320313 71.56020508 -14.2734375 72.48242188 C-15.93246094 73.48112305 -15.93246094 73.48112305 -17.625 74.5 C-18.79089389 75.18945949 -19.95757467 75.87758991 -21.125 76.56445312 C-23.55159229 77.99355391 -25.9746851 79.42833662 -28.39550781 80.8671875 C-33.89914662 84.13198925 -39.45181559 87.31171895 -45 90.5 C-47.16690007 91.74959535 -49.33356599 92.99959681 -51.5 94.25 C-90.5 116.75 -90.5 116.75 -93.75537109 118.62792969 C-95.90432957 119.86782537 -98.05309523 121.10805529 -100.20166016 122.34863281 C-105.27724766 125.27872574 -110.35473735 128.20536409 -115.43914795 131.12011719 C-117.8404023 132.49696526 -120.24055526 133.87572692 -122.640625 135.25463867 C-124.33486603 136.22696703 -126.03069581 137.1965254 -127.7265625 138.16601562 C-128.75265625 138.75576172 -129.77875 139.34550781 -130.8359375 139.953125 C-131.73876465 140.47036133 -132.6415918 140.98759766 -133.57177734 141.52050781 C-134.77374756 142.25285645 -134.77374756 142.25285645 -136 143 C-136.69683018 143.39708507 -137.39366035 143.79417013 -138.1116066 144.20328808 C-140.25701404 145.90008731 -140.25701404 145.90008731 -140.5592308 148.7819643 C-140.58671528 149.91878745 -140.61419975 151.0556106 -140.64251709 152.22688293 C-140.68269958 153.53179687 -140.72288208 154.83671082 -140.76428223 156.1811676 C-140.78840316 157.6309417 -140.81194311 159.08072555 -140.83496094 160.53051758 C-140.87312024 162.05505813 -140.91268515 163.57956405 -140.95355225 165.10403442 C-141.07912026 170.11711516 -141.16019859 175.13046094 -141.234375 180.14453125 C-141.24756429 180.99883657 -141.26075357 181.85314189 -141.27434254 182.73333526 C-141.39753485 190.79924598 -141.50431346 198.8652179 -141.57201767 206.93179798 C-141.65948693 217.2311689 -141.82688482 227.5221524 -142.10576797 237.81816941 C-142.29540437 245.06759418 -142.39183547 252.3147725 -142.42080522 259.56659812 C-142.44055785 263.89368966 -142.499937 268.21134108 -142.65978241 272.5357151 C-143.92733127 290.16681135 -143.92733127 290.16681135 -137.64624786 305.79795647 C-131.9424503 310.45252619 -125.68856121 313.35229453 -118.82556152 315.90504456 C-115.0567957 317.36550848 -111.82373667 319.27869266 -108.390625 321.40234375 C-106.34411655 322.58136564 -104.29726258 323.75978808 -102.25 324.9375 C-100.17170468 326.13381874 -98.09357881 327.33043191 -96.015625 328.52734375 C-95.02755859 329.09050293 -94.03949219 329.65366211 -93.02148438 330.23388672 C-90.90486004 331.47109264 -88.81397898 332.75291347 -86.74414062 334.06689453 C-85.68904297 334.7267334 -84.63394531 335.38657227 -83.546875 336.06640625 C-82.60166992 336.67556885 -81.65646484 337.28473145 -80.68261719 337.91235352 C-78.0598213 339.28543502 -78.0598213 339.28543502 -75.44555664 338.3425293 C-74.63852295 337.89949463 -73.83148926 337.45645996 -73 337 C-72.24162842 336.60458008 -71.48325684 336.20916016 -70.7019043 335.80175781 C-69.91726807 335.35670898 -69.13263184 334.91166016 -68.32421875 334.453125 C-67.42678955 333.94547607 -66.52936035 333.43782715 -65.60473633 332.91479492 C-64.64204834 332.3654126 -63.67936035 331.81603027 -62.6875 331.25 C-61.67131592 330.67290283 -60.65513184 330.09580566 -59.6081543 329.5012207 C-51.48295661 324.87474475 -43.4043584 320.17017856 -35.33666992 315.44433594 C-27.58753226 310.91014007 -19.80082131 306.44435477 -12 302 C-2.27865901 296.46031101 7.40895092 290.86624937 17.06689453 285.21655273 C27.59084625 279.06233258 38.15380137 272.97630004 48.71777344 266.89111328 C54.14659942 263.76319852 59.57319281 260.63141552 65 257.5 C67.16665583 256.24998121 69.3333225 254.99998122 71.5 253.75 C72.5725 253.13125 73.645 252.5125 74.75 251.875 C84.5 246.25 84.5 246.25 87.75268555 244.37353516 C89.91049803 243.12858718 92.06821353 241.8834711 94.22583008 240.63818359 C99.77716592 237.43447349 105.33036541 234.2340637 110.88671875 231.0390625 C113.15377735 229.73460354 115.42070655 228.42991967 117.6875 227.125 C118.77168213 226.50093262 119.85586426 225.87686523 120.97290039 225.23388672 C128.15158862 221.09210174 135.27429228 216.87087017 142.33984375 212.5390625 C145 211 145 211 148 210 C148.47360503 223.16941667 148.80387772 236.33413695 148.95596504 249.51141453 C149.03101991 255.63258794 149.1536048 261.74477586 149.38867188 267.86206055 C150.90567937 308.65318665 150.90567937 308.65318665 144.53601074 316.62078857 C138.97075125 322.17659176 131.799605 324.70753265 124.37026978 326.87461853 C118.76833246 328.74518584 113.9810167 331.88275338 109 335 C107.02174137 336.16354427 105.04035665 337.32180419 103.0546875 338.47265625 C102.06436523 339.05031738 101.07404297 339.62797852 100.05371094 340.22314453 C89.29354334 346.48413748 78.49670564 352.68216449 67.70898438 358.89550781 C55.1323608 366.14033048 42.56963043 373.4073281 30.03857422 380.73071289 C22.70686993 385.01245225 15.35670526 389.26138661 8 393.5 C5.84632146 394.74343293 3.69267559 395.98692246 1.5390625 397.23046875 C-2.38078524 399.49310183 -6.30501662 401.74768214 -10.23516846 403.99234009 C-13.03492626 405.59358252 -15.8293939 407.20402328 -18.625 408.8125 C-19.66914063 409.40546875 -20.71328125 409.9984375 -21.7890625 410.609375 C-22.7378125 411.15722656 -23.6865625 411.70507812 -24.6640625 412.26953125 C-25.50404785 412.75010986 -26.3440332 413.23068848 -27.20947266 413.72583008 C-27.80034668 414.14630615 -28.3912207 414.56678223 -29 415 C-29 415.66 -29 416.32 -29 417 C-25.26146437 419.20755448 -21.50752268 421.38744655 -17.75 423.5625 C-16.68652344 424.19091797 -15.62304688 424.81933594 -14.52734375 425.46679688 C-13.50253906 426.05654297 -12.47773438 426.64628906 -11.421875 427.25390625 C-10.00793457 428.07870483 -10.00793457 428.07870483 -8.56542969 428.92016602 C-6.15031869 430.16827618 -6.15031869 430.16827618 -3.97460938 429.83837891 C-1.54697246 428.80765374 0.71660492 427.62719112 3.015625 426.33203125 C4.50243774 425.4978064 4.50243774 425.4978064 6.01928711 424.64672852 C7.08542236 424.04143311 8.15155762 423.4361377 9.25 422.8125 C10.91977905 421.87071899 10.91977905 421.87071899 12.62329102 420.90991211 C22.10260671 415.54697604 31.51428458 410.0700557 40.91015625 404.5625 C47.21570419 400.8678669 53.54294436 397.21147319 59.875 393.5625 C60.95515381 392.93996338 62.03530762 392.31742676 63.14819336 391.67602539 C65.33796334 390.41423174 67.52782355 389.15259466 69.71777344 387.89111328 C75.14659942 384.76319852 80.57319281 381.63141552 86 378.5 C88.16665583 377.24998121 90.3333225 375.99998122 92.5 374.75 C93.5725 374.13125 94.645 373.5125 95.75 372.875 C105.5 367.25 105.5 367.25 108.75097656 365.37451172 C110.91447476 364.12628966 113.07788643 362.87791761 115.24121094 361.62939453 C120.70565017 358.47594744 126.17163645 355.32523904 131.640625 352.1796875 C142.30855676 346.04089825 152.96050697 339.87714476 163.5625 333.625 C164.50319336 333.07118652 165.44388672 332.51737305 166.41308594 331.94677734 C167.26805664 331.44098145 168.12302734 330.93518555 169.00390625 330.4140625 C169.75486572 329.9701416 170.5058252 329.5262207 171.27954102 329.06884766 C172.96151057 328.11431796 172.96151057 328.11431796 174 327 C174.09773905 324.48325639 174.12995545 321.99398173 174.12025452 319.47679138 C174.12110894 318.67964425 174.12196337 317.88249711 174.12284368 317.061194 C174.12450092 314.36946835 174.11897316 311.67780397 174.11352539 308.98608398 C174.11324355 307.06477866 174.1134012 305.14347323 174.1139679 303.22216797 C174.11425597 297.98891366 174.10835759 292.75568205 174.10139394 287.52243304 C174.0951621 282.0598021 174.09455674 276.59717069 174.09336853 271.13453674 C174.09025471 260.78247776 174.08204064 250.43042927 174.07201904 240.07837492 C174.06085947 228.29623148 174.05534785 216.51408755 174.05032361 204.73194015 C174.03985807 180.48795427 174.02225765 156.24397772 174 132 C171.78453726 133.09773861 169.57020354 134.19766147 167.35644531 135.29882812 C166.73649689 135.60572571 166.11654846 135.91262329 165.47781372 136.2288208 C159.75621923 139.07857794 154.24368598 142.23358726 148.75 145.5 C146.66183878 146.72981287 144.57328308 147.95895614 142.484375 149.1875 C141.41896484 149.81527344 140.35355469 150.44304687 139.25585938 151.08984375 C133.85545526 154.25816722 128.42719204 157.37786199 123 160.5 C114.65172524 165.30801084 106.31756475 170.13905882 98 175 C86.45277514 181.74713114 74.87097881 188.4333937 63.28222656 195.10888672 C57.85340058 198.23680148 52.42680719 201.36858448 47 204.5 C44.83334417 205.75001879 42.6666775 207.00001878 40.5 208.25 C39.4275 208.86875 38.355 209.4875 37.25 210.125 C1.5 230.75 1.5 230.75 -1.75048828 232.62524414 C-3.91557071 233.87435518 -6.08060982 235.12354129 -8.24560547 236.37280273 C-13.68615706 239.51202309 -19.12747216 242.64990563 -24.5703125 245.78515625 C-35.06232094 251.83055159 -45.54481676 257.89110219 -56 264 C-66.18520699 269.95115239 -76.39571098 275.85748612 -86.6171875 281.74609375 C-97.74753921 288.1592964 -108.87317613 294.58067854 -120 301 C-120 268 -120 235 -120 201 C-117.03 200.01 -117.03 200.01 -114 199 C-111.53656133 197.65192008 -109.14498724 196.27186776 -106.75 194.8125 C-105.23643414 193.90628644 -103.72205681 193.00142733 -102.20703125 192.09765625 C-100.96493896 191.35539795 -100.96493896 191.35539795 -99.69775391 190.59814453 C-94.63863807 187.60113346 -89.53511793 184.6808663 -84.4375 181.75 C-75.94315727 176.85903779 -67.46228905 171.94621321 -59 167 C-49.59012762 161.50049205 -40.15529401 156.04550784 -30.7109375 150.60546875 C-23.4604851 146.42650872 -16.22511731 142.22259494 -9 138 C0.39092153 132.51163821 9.80656173 127.06737927 19.23193359 121.63842773 C30.51356702 115.13609206 41.75967764 108.57345822 53 102 C50.60030318 99.34434213 48.03555811 97.72001447 44.93359375 95.953125 C43.90250488 95.36225098 42.87141602 94.77137695 41.80908203 94.16259766 C40.69645996 93.53144043 39.58383789 92.9002832 38.4375 92.25 C36.69040851 91.25225986 34.94332293 90.25450918 33.19659424 89.25613403 C31.98629655 88.5646554 30.77563837 87.87380739 29.56463623 87.18356323 C25.24075884 84.7173374 20.93497325 82.22151109 16.63671875 79.7109375 C15.44936639 79.01909201 14.26194874 78.32735854 13.07446289 77.63574219 C10.8073708 76.31422117 8.54217196 74.98944591 6.27905273 73.66113281 C4.73713257 72.76539551 4.73713257 72.76539551 3.1640625 71.8515625 C1.80982178 71.05999756 1.80982178 71.05999756 0.42822266 70.25244141 C-4.54022043 67.68979179 -6.28005725 67.7448494 -11.1640625 70.65625 Z " fill="#FFFFFF" transform="translate(200,0)"/>
</svg>
