<?xml version="1.0" standalone="no"?>
<!DOCTYPE svg PUBLIC "-//W3C//DTD SVG 20010904//EN"
 "http://www.w3.org/TR/2001/REC-SVG-20010904/DTD/svg10.dtd">
<svg version="1.0" xmlns="http://www.w3.org/2000/svg"
 width="666.000000pt" height="697.000000pt" viewBox="0 0 666.000000 697.000000"
 preserveAspectRatio="xMidYMid meet">

<g transform="translate(0.000000,697.000000) scale(0.100000,-0.100000)"
fill="#000000" stroke="none">
<path d="M5380 6240 l0 -60 -175 0 -175 0 0 -60 0 -60 -115 0 -115 0 0 -60 0
-60 -590 0 -590 0 0 -55 0 -55 -115 0 -115 0 0 -60 0 -60 -115 0 -115 0 0 -60
0 -60 -120 0 -120 0 0 -60 0 -60 -60 0 -60 0 0 -55 0 -55 -55 0 -55 0 0 -235
0 -235 -60 0 -60 0 0 -175 0 -175 -235 0 -235 0 0 -60 0 -60 -60 0 -60 0 0
-175 0 -175 -115 0 -115 0 0 55 0 55 -60 0 -60 0 0 120 0 120 -60 0 -60 0 0
60 0 60 -55 0 -55 0 0 55 0 55 -180 0 -180 0 0 60 0 60 -115 0 -115 0 0 175 0
175 -175 0 -175 0 0 -114 0 -115 52 -3 53 -3 3 -292 2 -292 58 -3 57 -3 3 -57
3 -58 294 0 295 0 0 -55 0 -54 58 -3 57 -3 3 -57 3 -58 172 -2 172 -3 3 -57 3
-58 -176 0 -175 0 0 -60 0 -60 -295 0 -295 0 0 -55 0 -55 -60 0 -60 0 0 -60 0
-60 -60 0 -60 0 0 -60 0 -60 -115 0 -115 0 0 -55 0 -55 -60 0 -60 0 0 -120 0
-120 355 0 355 0 0 60 0 60 175 0 175 0 0 60 0 60 235 0 235 0 0 55 0 55 115
0 115 0 0 60 0 60 120 0 120 0 0 60 0 60 55 0 55 0 0 55 0 55 120 0 120 0 0
60 0 61 58 -3 57 -3 3 -582 2 -583 55 0 55 0 0 -60 0 -60 60 0 60 0 0 -60 0
-60 60 0 60 0 0 -55 0 -55 60 0 60 0 0 -60 0 -60 175 0 175 0 0 -60 0 -60 175
0 175 0 0 -115 0 -115 -60 0 -60 0 0 -60 0 -60 -60 0 -60 0 0 -60 0 -60 -55 0
-55 0 0 -55 0 -55 -175 0 -175 0 0 -60 0 -60 -120 0 -120 0 0 -60 0 -60 -60 0
-60 0 0 -60 0 -60 -55 0 -55 0 0 -555 0 -555 -1345 0 c-890 0 -1345 -3 -1345
-10 0 -7 1117 -10 3330 -10 2213 0 3330 3 3330 10 0 7 -142 10 -405 10 l-405
0 0 615 0 615 -55 0 -55 0 0 60 0 60 -120 0 -120 0 0 60 0 60 -115 0 -115 0 0
55 0 55 -175 0 -175 0 0 120 0 120 -60 0 -60 0 0 115 0 115 115 0 115 0 0 60
0 60 120 0 120 0 0 60 0 60 55 0 55 0 0 115 0 115 60 0 60 0 0 820 0 820 60 0
60 0 -2 233 -3 232 -57 3 -58 3 0 59 0 60 60 0 60 0 0 175 0 175 60 0 60 0 0
115 0 115 43 0 c69 0 68 -3 65 186 l-3 169 -173 3 -173 2 3 58 3 57 58 3 57 3
-2 232 -3 232 -117 3 -118 3 0 -61z m120 -246 l0 -54 -60 0 -60 0 0 -175 0
-175 178 -2 177 -3 3 -57 3 -58 -61 0 -60 0 0 -115 0 -115 -60 0 -60 0 0 -175
0 -175 -60 0 -60 0 0 -60 0 -60 -55 0 -55 0 0 60 0 60 -940 0 -940 0 0 -60 0
-60 -175 0 -175 0 0 -60 0 -60 -120 0 -120 0 0 -55 0 -55 -55 0 -55 0 0 115 0
115 55 0 55 0 0 235 0 235 60 0 60 0 0 60 0 60 60 0 60 0 0 55 0 55 115 0 115
0 0 60 0 60 120 0 120 0 0 60 0 60 115 0 115 0 0 60 0 60 590 0 590 0 0 55 0
55 115 0 115 0 0 55 0 54 153 3 c208 4 197 7 197 -58z m-4690 -1281 c-2 -27
-2 -54 -1 -60 1 -10 31 -13 116 -13 l115 0 0 -55 0 -55 120 0 120 0 0 -60 0
-59 58 -3 57 -3 2 -40 c1 -22 2 -48 2 -57 1 -13 12 -18 54 -20 l52 -3 0 -50 0
-50 -113 -3 -112 -3 0 60 0 61 -232 2 -233 3 0 55 0 55 -60 5 -60 5 -3 168 -3
167 61 0 62 0 -2 -47z m4214 -10 c1 -28 4 -54 7 -57 3 -3 107 -6 231 -6 l226
-1 -2 -167 -1 -167 -165 0 -165 0 -3 58 -3 57 -114 0 -115 0 0 60 0 60 -707
-2 -708 -3 0 -55 0 -55 -172 -3 -173 -2 -1 -48 c-1 -26 -1 -53 0 -59 1 -10
-40 -13 -179 -13 l-180 0 -1 -32 c-1 -18 -1 -45 -1 -60 l-1 -28 -113 0 -114 0
0 55 0 54 62 3 62 3 -3 57 -2 57 118 3 118 3 -3 58 -3 57 121 0 120 0 0 55 0
55 175 0 175 0 0 60 0 60 756 -2 756 -3 2 -52z m-2583 -464 c-3 -129 -1 -168
10 -174 7 -5 34 -7 61 -6 l48 2 0 -56 0 -57 -57 4 -58 3 -3 -63 -3 -63 -52 3
-52 3 -3 58 -3 57 -114 0 -115 0 0 170 0 170 60 0 60 0 0 60 0 61 113 -3 112
-3 -4 -166z m2359 111 l0 -60 175 0 175 0 0 -57 0 -58 112 0 113 0 3 -757 2
-758 -55 0 -55 0 0 -120 0 -120 -60 0 -60 0 0 -55 0 -55 -115 0 -115 0 0 -60
0 -60 -705 0 -705 0 0 60 0 60 -120 0 -120 0 0 55 0 55 -55 0 -55 0 0 60 0 60
-60 0 -60 0 0 60 0 60 -60 0 -60 0 0 60 0 60 -60 0 -60 0 0 580 0 579 58 3 57
3 3 57 3 57 57 3 57 3 3 52 3 52 112 3 112 3 3 58 3 57 174 0 175 0 0 60 0 60
590 0 590 0 0 -60z m-3174 -227 l-1 -48 -57 -3 -58 -3 0 51 0 50 58 0 58 0 0
-47z m589 -358 l0 -50 -62 -3 -63 -3 0 -55 0 -54 -116 1 c-63 0 -117 -1 -119
-3 -2 -2 -5 -29 -6 -61 l-2 -58 -111 2 -111 2 -3 -62 -3 -61 -234 0 -235 0 -1
-32 c-1 -18 0 -43 1 -55 l1 -23 -175 0 -176 0 0 -60 0 -60 -170 0 -170 0 0 55
0 55 115 0 115 0 0 55 0 55 60 0 60 0 0 60 0 60 60 0 60 0 0 60 0 60 290 0
290 0 0 55 0 55 175 0 175 0 0 60 0 60 178 -2 177 -3 0 -50z m2463 -1872 l2
-173 -60 0 -60 0 0 -60 0 -60 -175 0 -175 0 0 60 0 60 -115 0 -115 0 0 175 0
175 348 -2 347 -3 3 -172z"/>
<path d="M3740 3715 l0 -115 120 0 120 0 0 115 0 115 -120 0 -120 0 0 -115z"/>
<path d="M4800 3715 l0 -115 115 0 115 0 0 115 0 115 -115 0 -115 0 0 -115z"/>
<path d="M3980 3245 l0 -115 410 0 410 0 0 115 0 115 -410 0 -410 0 0 -115z"/>
</g>
</svg>
